<mxfile host="app.diagrams.net" modified="2024-05-18T15:53:22.181Z" agent="Mozilla/5.0 (X11; Linux x86_64) AppleWebKit/537.36 (KHTML, like Gecko) Chrome/124.0.0.0 Safari/537.36" etag="_bLbLyGwiqJ1UEvu6RbX" version="24.4.4" type="github">
  <diagram name="Page-1" id="F2wObzFkL9Ld8bVrgQpd">
    <mxGraphModel dx="2390" dy="1315" grid="1" gridSize="10" guides="1" tooltips="1" connect="1" arrows="1" fold="1" page="1" pageScale="1" pageWidth="850" pageHeight="1100" math="0" shadow="0">
      <root>
        <mxCell id="0" />
        <mxCell id="1" parent="0" />
        <mxCell id="Nc63QevifEA5sTJZHli5-1" value="Paquete" style="whiteSpace=wrap;html=1;align=center;" parent="1" vertex="1">
          <mxGeometry x="180" y="360" width="100" height="40" as="geometry" />
        </mxCell>
        <mxCell id="Nc63QevifEA5sTJZHli5-2" value="Camionero" style="whiteSpace=wrap;html=1;align=center;" parent="1" vertex="1">
          <mxGeometry x="180" y="160" width="100" height="40" as="geometry" />
        </mxCell>
        <mxCell id="Nc63QevifEA5sTJZHli5-3" value="Entrega" style="shape=rhombus;perimeter=rhombusPerimeter;whiteSpace=wrap;html=1;align=center;" parent="1" vertex="1">
          <mxGeometry x="170" y="250" width="120" height="60" as="geometry" />
        </mxCell>
        <mxCell id="Nc63QevifEA5sTJZHli5-4" value="" style="endArrow=none;html=1;rounded=0;exitX=0.5;exitY=0;exitDx=0;exitDy=0;entryX=0.5;entryY=1;entryDx=0;entryDy=0;" parent="1" source="Nc63QevifEA5sTJZHli5-1" target="Nc63QevifEA5sTJZHli5-3" edge="1">
          <mxGeometry relative="1" as="geometry">
            <mxPoint x="145" y="290" as="sourcePoint" />
            <mxPoint x="305" y="290" as="targetPoint" />
          </mxGeometry>
        </mxCell>
        <mxCell id="Nc63QevifEA5sTJZHli5-5" value="" style="endArrow=none;html=1;rounded=0;exitX=0.5;exitY=1;exitDx=0;exitDy=0;entryX=0.5;entryY=0;entryDx=0;entryDy=0;" parent="1" source="Nc63QevifEA5sTJZHli5-2" target="Nc63QevifEA5sTJZHli5-3" edge="1">
          <mxGeometry relative="1" as="geometry">
            <mxPoint x="145" y="290" as="sourcePoint" />
            <mxPoint x="305" y="290" as="targetPoint" />
          </mxGeometry>
        </mxCell>
        <mxCell id="Nc63QevifEA5sTJZHli5-6" value="Municipio" style="ellipse;whiteSpace=wrap;html=1;align=center;" parent="1" vertex="1">
          <mxGeometry x="489" width="100" height="40" as="geometry" />
        </mxCell>
        <mxCell id="Nc63QevifEA5sTJZHli5-8" value="Salario" style="ellipse;whiteSpace=wrap;html=1;align=center;" parent="1" vertex="1">
          <mxGeometry x="360" y="80" width="100" height="40" as="geometry" />
        </mxCell>
        <mxCell id="Nc63QevifEA5sTJZHli5-9" value="Direccion" style="ellipse;whiteSpace=wrap;html=1;align=center;" parent="1" vertex="1">
          <mxGeometry x="240" y="80" width="100" height="40" as="geometry" />
        </mxCell>
        <mxCell id="Nc63QevifEA5sTJZHli5-11" value="Nombre" style="ellipse;whiteSpace=wrap;html=1;align=center;" parent="1" vertex="1">
          <mxGeometry y="80" width="100" height="40" as="geometry" />
        </mxCell>
        <mxCell id="Nc63QevifEA5sTJZHli5-12" value="RFC" style="ellipse;whiteSpace=wrap;html=1;align=center;fontStyle=4;" parent="1" vertex="1">
          <mxGeometry y="160" width="100" height="40" as="geometry" />
        </mxCell>
        <mxCell id="Nc63QevifEA5sTJZHli5-13" value="Telefono" style="ellipse;shape=doubleEllipse;margin=3;whiteSpace=wrap;html=1;align=center;" parent="1" vertex="1">
          <mxGeometry x="125" y="80" width="100" height="40" as="geometry" />
        </mxCell>
        <mxCell id="Nc63QevifEA5sTJZHli5-15" value="" style="endArrow=none;html=1;rounded=0;exitX=0.5;exitY=1;exitDx=0;exitDy=0;entryX=1;entryY=0;entryDx=0;entryDy=0;" parent="1" source="Nc63QevifEA5sTJZHli5-8" target="Nc63QevifEA5sTJZHli5-2" edge="1">
          <mxGeometry relative="1" as="geometry">
            <mxPoint x="145" y="290" as="sourcePoint" />
            <mxPoint x="305" y="290" as="targetPoint" />
          </mxGeometry>
        </mxCell>
        <mxCell id="Nc63QevifEA5sTJZHli5-16" value="" style="endArrow=none;html=1;rounded=0;exitX=0.75;exitY=0;exitDx=0;exitDy=0;entryX=0.5;entryY=1;entryDx=0;entryDy=0;" parent="1" source="Nc63QevifEA5sTJZHli5-2" target="Nc63QevifEA5sTJZHli5-9" edge="1">
          <mxGeometry relative="1" as="geometry">
            <mxPoint x="145" y="290" as="sourcePoint" />
            <mxPoint x="305" y="290" as="targetPoint" />
          </mxGeometry>
        </mxCell>
        <mxCell id="Nc63QevifEA5sTJZHli5-17" value="" style="endArrow=none;html=1;rounded=0;exitX=0.5;exitY=1;exitDx=0;exitDy=0;entryX=0.25;entryY=0;entryDx=0;entryDy=0;" parent="1" source="Nc63QevifEA5sTJZHli5-13" target="Nc63QevifEA5sTJZHli5-2" edge="1">
          <mxGeometry relative="1" as="geometry">
            <mxPoint x="145" y="290" as="sourcePoint" />
            <mxPoint x="305" y="290" as="targetPoint" />
          </mxGeometry>
        </mxCell>
        <mxCell id="Nc63QevifEA5sTJZHli5-18" value="" style="endArrow=none;html=1;rounded=0;exitX=0.5;exitY=1;exitDx=0;exitDy=0;entryX=0;entryY=0;entryDx=0;entryDy=0;" parent="1" source="Nc63QevifEA5sTJZHli5-11" target="Nc63QevifEA5sTJZHli5-2" edge="1">
          <mxGeometry relative="1" as="geometry">
            <mxPoint x="145" y="290" as="sourcePoint" />
            <mxPoint x="305" y="290" as="targetPoint" />
          </mxGeometry>
        </mxCell>
        <mxCell id="Nc63QevifEA5sTJZHli5-19" value="" style="endArrow=none;html=1;rounded=0;exitX=1;exitY=0.5;exitDx=0;exitDy=0;entryX=0;entryY=0.5;entryDx=0;entryDy=0;" parent="1" source="Nc63QevifEA5sTJZHli5-12" target="Nc63QevifEA5sTJZHli5-2" edge="1">
          <mxGeometry relative="1" as="geometry">
            <mxPoint x="145" y="290" as="sourcePoint" />
            <mxPoint x="305" y="290" as="targetPoint" />
          </mxGeometry>
        </mxCell>
        <mxCell id="Nc63QevifEA5sTJZHli5-20" value="Codigo_Paq" style="ellipse;whiteSpace=wrap;html=1;align=center;fontStyle=4;" parent="1" vertex="1">
          <mxGeometry x="45" y="360" width="100" height="40" as="geometry" />
        </mxCell>
        <mxCell id="Nc63QevifEA5sTJZHli5-21" value="Dir_Dest" style="ellipse;whiteSpace=wrap;html=1;align=center;" parent="1" vertex="1">
          <mxGeometry x="315" y="360" width="100" height="40" as="geometry" />
        </mxCell>
        <mxCell id="Nc63QevifEA5sTJZHli5-22" value="Descripcion" style="ellipse;whiteSpace=wrap;html=1;align=center;" parent="1" vertex="1">
          <mxGeometry x="115" y="440" width="100" height="40" as="geometry" />
        </mxCell>
        <mxCell id="Nc63QevifEA5sTJZHli5-23" value="Destinatario" style="ellipse;whiteSpace=wrap;html=1;align=center;" parent="1" vertex="1">
          <mxGeometry x="260" y="440" width="100" height="40" as="geometry" />
        </mxCell>
        <mxCell id="Nc63QevifEA5sTJZHli5-24" value="" style="endArrow=none;html=1;rounded=0;exitX=0.75;exitY=1;exitDx=0;exitDy=0;entryX=0.5;entryY=0;entryDx=0;entryDy=0;" parent="1" source="Nc63QevifEA5sTJZHli5-1" target="Nc63QevifEA5sTJZHli5-23" edge="1">
          <mxGeometry relative="1" as="geometry">
            <mxPoint x="145" y="290" as="sourcePoint" />
            <mxPoint x="305" y="290" as="targetPoint" />
          </mxGeometry>
        </mxCell>
        <mxCell id="Nc63QevifEA5sTJZHli5-25" value="" style="endArrow=none;html=1;rounded=0;exitX=0.5;exitY=0;exitDx=0;exitDy=0;entryX=0.25;entryY=1;entryDx=0;entryDy=0;" parent="1" source="Nc63QevifEA5sTJZHli5-22" target="Nc63QevifEA5sTJZHli5-1" edge="1">
          <mxGeometry relative="1" as="geometry">
            <mxPoint x="145" y="290" as="sourcePoint" />
            <mxPoint x="305" y="290" as="targetPoint" />
          </mxGeometry>
        </mxCell>
        <mxCell id="Nc63QevifEA5sTJZHli5-26" value="" style="endArrow=none;html=1;rounded=0;exitX=1;exitY=0.5;exitDx=0;exitDy=0;entryX=0;entryY=0.5;entryDx=0;entryDy=0;" parent="1" source="Nc63QevifEA5sTJZHli5-1" target="Nc63QevifEA5sTJZHli5-21" edge="1">
          <mxGeometry relative="1" as="geometry">
            <mxPoint x="145" y="290" as="sourcePoint" />
            <mxPoint x="305" y="290" as="targetPoint" />
          </mxGeometry>
        </mxCell>
        <mxCell id="Nc63QevifEA5sTJZHli5-27" value="" style="endArrow=none;html=1;rounded=0;exitX=1;exitY=0.5;exitDx=0;exitDy=0;entryX=0;entryY=0.5;entryDx=0;entryDy=0;" parent="1" source="Nc63QevifEA5sTJZHli5-20" target="Nc63QevifEA5sTJZHli5-1" edge="1">
          <mxGeometry relative="1" as="geometry">
            <mxPoint x="145" y="290" as="sourcePoint" />
            <mxPoint x="305" y="290" as="targetPoint" />
          </mxGeometry>
        </mxCell>
        <mxCell id="Nc63QevifEA5sTJZHli5-28" value="Colonia" style="ellipse;whiteSpace=wrap;html=1;align=center;" parent="1" vertex="1">
          <mxGeometry x="367" width="100" height="40" as="geometry" />
        </mxCell>
        <mxCell id="Nc63QevifEA5sTJZHli5-29" value="Num_Int" style="ellipse;whiteSpace=wrap;html=1;align=center;" parent="1" vertex="1">
          <mxGeometry x="242" width="100" height="40" as="geometry" />
        </mxCell>
        <mxCell id="Nc63QevifEA5sTJZHli5-30" value="Num_Ext" style="ellipse;whiteSpace=wrap;html=1;align=center;" parent="1" vertex="1">
          <mxGeometry x="122" width="100" height="40" as="geometry" />
        </mxCell>
        <mxCell id="Nc63QevifEA5sTJZHli5-31" value="Calle" style="ellipse;whiteSpace=wrap;html=1;align=center;" parent="1" vertex="1">
          <mxGeometry x="7" width="100" height="40" as="geometry" />
        </mxCell>
        <mxCell id="Nc63QevifEA5sTJZHli5-32" value="" style="endArrow=none;html=1;rounded=0;exitX=0.5;exitY=1;exitDx=0;exitDy=0;entryX=0.5;entryY=0;entryDx=0;entryDy=0;" parent="1" source="Nc63QevifEA5sTJZHli5-31" target="Nc63QevifEA5sTJZHli5-9" edge="1">
          <mxGeometry relative="1" as="geometry">
            <mxPoint x="145" y="290" as="sourcePoint" />
            <mxPoint x="305" y="290" as="targetPoint" />
          </mxGeometry>
        </mxCell>
        <mxCell id="Nc63QevifEA5sTJZHli5-33" value="" style="endArrow=none;html=1;rounded=0;exitX=0.5;exitY=1;exitDx=0;exitDy=0;entryX=0.5;entryY=0;entryDx=0;entryDy=0;" parent="1" source="Nc63QevifEA5sTJZHli5-28" target="Nc63QevifEA5sTJZHli5-9" edge="1">
          <mxGeometry relative="1" as="geometry">
            <mxPoint x="145" y="290" as="sourcePoint" />
            <mxPoint x="305" y="290" as="targetPoint" />
          </mxGeometry>
        </mxCell>
        <mxCell id="Nc63QevifEA5sTJZHli5-34" value="" style="endArrow=none;html=1;rounded=0;exitX=0.5;exitY=1;exitDx=0;exitDy=0;entryX=0.5;entryY=0;entryDx=0;entryDy=0;" parent="1" source="Nc63QevifEA5sTJZHli5-29" target="Nc63QevifEA5sTJZHli5-9" edge="1">
          <mxGeometry relative="1" as="geometry">
            <mxPoint x="145" y="290" as="sourcePoint" />
            <mxPoint x="305" y="290" as="targetPoint" />
          </mxGeometry>
        </mxCell>
        <mxCell id="Nc63QevifEA5sTJZHli5-35" value="" style="endArrow=none;html=1;rounded=0;exitX=0.5;exitY=1;exitDx=0;exitDy=0;entryX=0.5;entryY=0;entryDx=0;entryDy=0;" parent="1" source="Nc63QevifEA5sTJZHli5-30" target="Nc63QevifEA5sTJZHli5-9" edge="1">
          <mxGeometry relative="1" as="geometry">
            <mxPoint x="145" y="290" as="sourcePoint" />
            <mxPoint x="305" y="290" as="targetPoint" />
          </mxGeometry>
        </mxCell>
        <mxCell id="Nc63QevifEA5sTJZHli5-36" value="Colonia" style="ellipse;whiteSpace=wrap;html=1;align=center;" parent="1" vertex="1">
          <mxGeometry x="465" y="390" width="100" height="40" as="geometry" />
        </mxCell>
        <mxCell id="Nc63QevifEA5sTJZHli5-37" value="Num_Int" style="ellipse;whiteSpace=wrap;html=1;align=center;" parent="1" vertex="1">
          <mxGeometry x="465" y="340" width="100" height="40" as="geometry" />
        </mxCell>
        <mxCell id="Nc63QevifEA5sTJZHli5-38" value="Num_Ext" style="ellipse;whiteSpace=wrap;html=1;align=center;" parent="1" vertex="1">
          <mxGeometry x="465" y="290" width="100" height="40" as="geometry" />
        </mxCell>
        <mxCell id="Nc63QevifEA5sTJZHli5-39" value="Calle" style="ellipse;whiteSpace=wrap;html=1;align=center;" parent="1" vertex="1">
          <mxGeometry x="465" y="240" width="100" height="40" as="geometry" />
        </mxCell>
        <mxCell id="Nc63QevifEA5sTJZHli5-40" value="" style="endArrow=none;html=1;rounded=0;entryX=0;entryY=0.5;entryDx=0;entryDy=0;exitX=1;exitY=0.5;exitDx=0;exitDy=0;" parent="1" source="Nc63QevifEA5sTJZHli5-21" target="Nc63QevifEA5sTJZHli5-37" edge="1">
          <mxGeometry relative="1" as="geometry">
            <mxPoint x="95" y="320" as="sourcePoint" />
            <mxPoint x="255" y="320" as="targetPoint" />
          </mxGeometry>
        </mxCell>
        <mxCell id="Nc63QevifEA5sTJZHli5-41" value="" style="endArrow=none;html=1;rounded=0;entryX=0;entryY=0.5;entryDx=0;entryDy=0;exitX=1;exitY=0.5;exitDx=0;exitDy=0;" parent="1" source="Nc63QevifEA5sTJZHli5-21" target="Nc63QevifEA5sTJZHli5-38" edge="1">
          <mxGeometry relative="1" as="geometry">
            <mxPoint x="95" y="320" as="sourcePoint" />
            <mxPoint x="255" y="320" as="targetPoint" />
          </mxGeometry>
        </mxCell>
        <mxCell id="Nc63QevifEA5sTJZHli5-42" value="" style="endArrow=none;html=1;rounded=0;entryX=0;entryY=0.5;entryDx=0;entryDy=0;exitX=1;exitY=0.5;exitDx=0;exitDy=0;" parent="1" source="Nc63QevifEA5sTJZHli5-21" target="Nc63QevifEA5sTJZHli5-39" edge="1">
          <mxGeometry relative="1" as="geometry">
            <mxPoint x="95" y="320" as="sourcePoint" />
            <mxPoint x="255" y="320" as="targetPoint" />
          </mxGeometry>
        </mxCell>
        <mxCell id="Nc63QevifEA5sTJZHli5-44" value="Estado" style="ellipse;whiteSpace=wrap;html=1;align=center;" parent="1" vertex="1">
          <mxGeometry x="465" y="505" width="100" height="40" as="geometry" />
        </mxCell>
        <mxCell id="Nc63QevifEA5sTJZHli5-45" value="Municipio" style="ellipse;whiteSpace=wrap;html=1;align=center;" parent="1" vertex="1">
          <mxGeometry x="465" y="445" width="100" height="40" as="geometry" />
        </mxCell>
        <mxCell id="Nc63QevifEA5sTJZHli5-46" value="" style="endArrow=none;html=1;rounded=0;entryX=0;entryY=0.5;entryDx=0;entryDy=0;exitX=1;exitY=0.5;exitDx=0;exitDy=0;" parent="1" source="Nc63QevifEA5sTJZHli5-21" target="Nc63QevifEA5sTJZHli5-44" edge="1">
          <mxGeometry relative="1" as="geometry">
            <mxPoint x="95" y="320" as="sourcePoint" />
            <mxPoint x="255" y="320" as="targetPoint" />
          </mxGeometry>
        </mxCell>
        <mxCell id="Nc63QevifEA5sTJZHli5-47" value="" style="endArrow=none;html=1;rounded=0;entryX=0;entryY=0.5;entryDx=0;entryDy=0;exitX=1;exitY=0.5;exitDx=0;exitDy=0;" parent="1" source="Nc63QevifEA5sTJZHli5-21" target="Nc63QevifEA5sTJZHli5-45" edge="1">
          <mxGeometry relative="1" as="geometry">
            <mxPoint x="95" y="320" as="sourcePoint" />
            <mxPoint x="255" y="320" as="targetPoint" />
          </mxGeometry>
        </mxCell>
        <mxCell id="Nc63QevifEA5sTJZHli5-48" value="" style="endArrow=none;html=1;rounded=0;entryX=0;entryY=0.5;entryDx=0;entryDy=0;exitX=1;exitY=0.5;exitDx=0;exitDy=0;" parent="1" source="Nc63QevifEA5sTJZHli5-21" target="Nc63QevifEA5sTJZHli5-36" edge="1">
          <mxGeometry relative="1" as="geometry">
            <mxPoint x="95" y="320" as="sourcePoint" />
            <mxPoint x="255" y="320" as="targetPoint" />
          </mxGeometry>
        </mxCell>
        <mxCell id="Nc63QevifEA5sTJZHli5-49" value="" style="endArrow=none;html=1;rounded=0;entryX=0.5;entryY=1;entryDx=0;entryDy=0;exitX=0.5;exitY=0;exitDx=0;exitDy=0;" parent="1" source="Nc63QevifEA5sTJZHli5-9" target="Nc63QevifEA5sTJZHli5-6" edge="1">
          <mxGeometry relative="1" as="geometry">
            <mxPoint x="217" y="330" as="sourcePoint" />
            <mxPoint x="377" y="330" as="targetPoint" />
          </mxGeometry>
        </mxCell>
        <mxCell id="Nc63QevifEA5sTJZHli5-50" value="Empleado" style="whiteSpace=wrap;html=1;align=center;" parent="1" vertex="1">
          <mxGeometry x="281" y="712.5" width="100" height="40" as="geometry" />
        </mxCell>
        <mxCell id="Nc63QevifEA5sTJZHli5-51" value="Cliente" style="whiteSpace=wrap;html=1;align=center;" parent="1" vertex="1">
          <mxGeometry x="281" y="912.5" width="100" height="40" as="geometry" />
        </mxCell>
        <mxCell id="Nc63QevifEA5sTJZHli5-52" value="Producto" style="whiteSpace=wrap;html=1;align=center;" parent="1" vertex="1">
          <mxGeometry x="567" y="702.5" width="100" height="40" as="geometry" />
        </mxCell>
        <mxCell id="Nc63QevifEA5sTJZHli5-53" value="Entrega" style="shape=rhombus;perimeter=rhombusPerimeter;whiteSpace=wrap;html=1;align=center;" parent="1" vertex="1">
          <mxGeometry x="407" y="702.5" width="120" height="60" as="geometry" />
        </mxCell>
        <mxCell id="Nc63QevifEA5sTJZHli5-54" value="Atiende" style="shape=rhombus;perimeter=rhombusPerimeter;whiteSpace=wrap;html=1;align=center;" parent="1" vertex="1">
          <mxGeometry x="271" y="812.5" width="120" height="60" as="geometry" />
        </mxCell>
        <mxCell id="Nc63QevifEA5sTJZHli5-55" value="" style="endArrow=none;html=1;rounded=0;entryX=0;entryY=0.5;entryDx=0;entryDy=0;exitX=1;exitY=0.5;exitDx=0;exitDy=0;" parent="1" source="Nc63QevifEA5sTJZHli5-50" target="Nc63QevifEA5sTJZHli5-53" edge="1">
          <mxGeometry relative="1" as="geometry">
            <mxPoint x="376" y="772.5" as="sourcePoint" />
            <mxPoint x="396" y="732.5" as="targetPoint" />
          </mxGeometry>
        </mxCell>
        <mxCell id="Nc63QevifEA5sTJZHli5-57" value="" style="endArrow=none;html=1;rounded=0;exitX=0;exitY=0.5;exitDx=0;exitDy=0;entryX=1;entryY=0.5;entryDx=0;entryDy=0;" parent="1" source="Nc63QevifEA5sTJZHli5-52" target="Nc63QevifEA5sTJZHli5-53" edge="1">
          <mxGeometry relative="1" as="geometry">
            <mxPoint x="237" y="732.5" as="sourcePoint" />
            <mxPoint x="397" y="732.5" as="targetPoint" />
          </mxGeometry>
        </mxCell>
        <mxCell id="Nc63QevifEA5sTJZHli5-59" value="" style="endArrow=none;html=1;rounded=0;exitX=0.5;exitY=1;exitDx=0;exitDy=0;entryX=0.5;entryY=0;entryDx=0;entryDy=0;" parent="1" source="Nc63QevifEA5sTJZHli5-54" target="Nc63QevifEA5sTJZHli5-51" edge="1">
          <mxGeometry relative="1" as="geometry">
            <mxPoint x="451" y="822.5" as="sourcePoint" />
            <mxPoint x="611" y="822.5" as="targetPoint" />
          </mxGeometry>
        </mxCell>
        <mxCell id="Nc63QevifEA5sTJZHli5-60" value="" style="endArrow=none;html=1;rounded=0;exitX=0.5;exitY=1;exitDx=0;exitDy=0;entryX=0.5;entryY=0;entryDx=0;entryDy=0;" parent="1" source="Nc63QevifEA5sTJZHli5-50" target="Nc63QevifEA5sTJZHli5-54" edge="1">
          <mxGeometry relative="1" as="geometry">
            <mxPoint x="457" y="802.5" as="sourcePoint" />
            <mxPoint x="617" y="802.5" as="targetPoint" />
          </mxGeometry>
        </mxCell>
        <mxCell id="Nc63QevifEA5sTJZHli5-61" value="Nombre" style="ellipse;whiteSpace=wrap;html=1;align=center;" parent="1" vertex="1">
          <mxGeometry x="157" y="772.5" width="100" height="40" as="geometry" />
        </mxCell>
        <mxCell id="Nc63QevifEA5sTJZHli5-62" value="Direccion" style="ellipse;whiteSpace=wrap;html=1;align=center;" parent="1" vertex="1">
          <mxGeometry x="157" y="712.5" width="100" height="40" as="geometry" />
        </mxCell>
        <mxCell id="Nc63QevifEA5sTJZHli5-63" value="CURP" style="ellipse;whiteSpace=wrap;html=1;align=center;fontStyle=4;" parent="1" vertex="1">
          <mxGeometry x="157" y="652.5" width="100" height="40" as="geometry" />
        </mxCell>
        <mxCell id="Nc63QevifEA5sTJZHli5-64" value="Telefono" style="ellipse;shape=doubleEllipse;margin=3;whiteSpace=wrap;html=1;align=center;" parent="1" vertex="1">
          <mxGeometry x="281" y="652.5" width="100" height="40" as="geometry" />
        </mxCell>
        <mxCell id="Nc63QevifEA5sTJZHli5-65" value="" style="endArrow=none;html=1;rounded=0;exitX=1;exitY=0.5;exitDx=0;exitDy=0;entryX=0;entryY=1;entryDx=0;entryDy=0;" parent="1" source="Nc63QevifEA5sTJZHli5-61" target="Nc63QevifEA5sTJZHli5-50" edge="1">
          <mxGeometry relative="1" as="geometry">
            <mxPoint x="354" y="802.5" as="sourcePoint" />
            <mxPoint x="514" y="802.5" as="targetPoint" />
          </mxGeometry>
        </mxCell>
        <mxCell id="Nc63QevifEA5sTJZHli5-66" value="" style="endArrow=none;html=1;rounded=0;exitX=1;exitY=0.5;exitDx=0;exitDy=0;entryX=0;entryY=0.5;entryDx=0;entryDy=0;" parent="1" source="Nc63QevifEA5sTJZHli5-62" target="Nc63QevifEA5sTJZHli5-50" edge="1">
          <mxGeometry relative="1" as="geometry">
            <mxPoint x="354" y="802.5" as="sourcePoint" />
            <mxPoint x="514" y="802.5" as="targetPoint" />
          </mxGeometry>
        </mxCell>
        <mxCell id="Nc63QevifEA5sTJZHli5-67" value="" style="endArrow=none;html=1;rounded=0;entryX=1;entryY=0.5;entryDx=0;entryDy=0;exitX=0;exitY=0;exitDx=0;exitDy=0;" parent="1" source="Nc63QevifEA5sTJZHli5-50" target="Nc63QevifEA5sTJZHli5-63" edge="1">
          <mxGeometry relative="1" as="geometry">
            <mxPoint x="354" y="802.5" as="sourcePoint" />
            <mxPoint x="514" y="802.5" as="targetPoint" />
          </mxGeometry>
        </mxCell>
        <mxCell id="Nc63QevifEA5sTJZHli5-68" value="" style="endArrow=none;html=1;rounded=0;entryX=0.5;entryY=1;entryDx=0;entryDy=0;exitX=0.5;exitY=0;exitDx=0;exitDy=0;" parent="1" source="Nc63QevifEA5sTJZHli5-50" target="Nc63QevifEA5sTJZHli5-64" edge="1">
          <mxGeometry relative="1" as="geometry">
            <mxPoint x="354" y="802.5" as="sourcePoint" />
            <mxPoint x="514" y="802.5" as="targetPoint" />
          </mxGeometry>
        </mxCell>
        <mxCell id="Nc63QevifEA5sTJZHli5-69" value="Colonia" style="ellipse;whiteSpace=wrap;html=1;align=center;" parent="1" vertex="1">
          <mxGeometry x="7" y="760" width="100" height="40" as="geometry" />
        </mxCell>
        <mxCell id="Nc63QevifEA5sTJZHli5-70" value="Num_Int" style="ellipse;whiteSpace=wrap;html=1;align=center;" parent="1" vertex="1">
          <mxGeometry x="7" y="710" width="100" height="40" as="geometry" />
        </mxCell>
        <mxCell id="Nc63QevifEA5sTJZHli5-71" value="Num_Ext" style="ellipse;whiteSpace=wrap;html=1;align=center;" parent="1" vertex="1">
          <mxGeometry x="7" y="660" width="100" height="40" as="geometry" />
        </mxCell>
        <mxCell id="Nc63QevifEA5sTJZHli5-72" value="Calle" style="ellipse;whiteSpace=wrap;html=1;align=center;" parent="1" vertex="1">
          <mxGeometry x="7" y="610" width="100" height="40" as="geometry" />
        </mxCell>
        <mxCell id="Nc63QevifEA5sTJZHli5-73" value="Municipio" style="ellipse;whiteSpace=wrap;html=1;align=center;" parent="1" vertex="1">
          <mxGeometry x="7" y="815" width="100" height="40" as="geometry" />
        </mxCell>
        <mxCell id="Nc63QevifEA5sTJZHli5-74" value="" style="endArrow=none;html=1;rounded=0;exitX=1;exitY=0.5;exitDx=0;exitDy=0;entryX=0;entryY=0.5;entryDx=0;entryDy=0;" parent="1" source="Nc63QevifEA5sTJZHli5-73" target="Nc63QevifEA5sTJZHli5-62" edge="1">
          <mxGeometry relative="1" as="geometry">
            <mxPoint x="337" y="592.5" as="sourcePoint" />
            <mxPoint x="497" y="592.5" as="targetPoint" />
          </mxGeometry>
        </mxCell>
        <mxCell id="Nc63QevifEA5sTJZHli5-75" value="" style="endArrow=none;html=1;rounded=0;exitX=1;exitY=0.5;exitDx=0;exitDy=0;entryX=0;entryY=0.5;entryDx=0;entryDy=0;" parent="1" source="Nc63QevifEA5sTJZHli5-69" target="Nc63QevifEA5sTJZHli5-62" edge="1">
          <mxGeometry relative="1" as="geometry">
            <mxPoint x="337" y="592.5" as="sourcePoint" />
            <mxPoint x="497" y="592.5" as="targetPoint" />
          </mxGeometry>
        </mxCell>
        <mxCell id="Nc63QevifEA5sTJZHli5-76" value="" style="endArrow=none;html=1;rounded=0;exitX=1;exitY=0.5;exitDx=0;exitDy=0;entryX=0;entryY=0.5;entryDx=0;entryDy=0;" parent="1" source="Nc63QevifEA5sTJZHli5-70" target="Nc63QevifEA5sTJZHli5-62" edge="1">
          <mxGeometry relative="1" as="geometry">
            <mxPoint x="337" y="592.5" as="sourcePoint" />
            <mxPoint x="497" y="592.5" as="targetPoint" />
          </mxGeometry>
        </mxCell>
        <mxCell id="Nc63QevifEA5sTJZHli5-77" value="" style="endArrow=none;html=1;rounded=0;exitX=1;exitY=0.5;exitDx=0;exitDy=0;entryX=0;entryY=0.5;entryDx=0;entryDy=0;" parent="1" source="Nc63QevifEA5sTJZHli5-71" target="Nc63QevifEA5sTJZHli5-62" edge="1">
          <mxGeometry relative="1" as="geometry">
            <mxPoint x="337" y="592.5" as="sourcePoint" />
            <mxPoint x="497" y="592.5" as="targetPoint" />
          </mxGeometry>
        </mxCell>
        <mxCell id="Nc63QevifEA5sTJZHli5-78" value="" style="endArrow=none;html=1;rounded=0;exitX=1;exitY=0.5;exitDx=0;exitDy=0;entryX=0;entryY=0.5;entryDx=0;entryDy=0;" parent="1" source="Nc63QevifEA5sTJZHli5-72" target="Nc63QevifEA5sTJZHli5-62" edge="1">
          <mxGeometry relative="1" as="geometry">
            <mxPoint x="337" y="592.5" as="sourcePoint" />
            <mxPoint x="497" y="592.5" as="targetPoint" />
          </mxGeometry>
        </mxCell>
        <mxCell id="Nc63QevifEA5sTJZHli5-79" value="Nombre" style="ellipse;whiteSpace=wrap;html=1;align=center;" parent="1" vertex="1">
          <mxGeometry x="222.5" y="982.5" width="100" height="40" as="geometry" />
        </mxCell>
        <mxCell id="Nc63QevifEA5sTJZHli5-80" value="ID_Cliente" style="ellipse;whiteSpace=wrap;html=1;align=center;fontStyle=4;" parent="1" vertex="1">
          <mxGeometry x="127" y="912.5" width="100" height="40" as="geometry" />
        </mxCell>
        <mxCell id="Nc63QevifEA5sTJZHli5-81" value="Telefono" style="ellipse;shape=doubleEllipse;margin=3;whiteSpace=wrap;html=1;align=center;" parent="1" vertex="1">
          <mxGeometry x="339.5" y="982.5" width="100" height="40" as="geometry" />
        </mxCell>
        <mxCell id="Nc63QevifEA5sTJZHli5-82" value="Direccion" style="ellipse;whiteSpace=wrap;html=1;align=center;" parent="1" vertex="1">
          <mxGeometry x="437" y="912.5" width="100" height="40" as="geometry" />
        </mxCell>
        <mxCell id="Nc63QevifEA5sTJZHli5-83" value="" style="endArrow=none;html=1;rounded=0;exitX=1;exitY=0.5;exitDx=0;exitDy=0;entryX=0;entryY=0.5;entryDx=0;entryDy=0;" parent="1" source="Nc63QevifEA5sTJZHli5-51" target="Nc63QevifEA5sTJZHli5-82" edge="1">
          <mxGeometry relative="1" as="geometry">
            <mxPoint x="337" y="862.5" as="sourcePoint" />
            <mxPoint x="497" y="862.5" as="targetPoint" />
          </mxGeometry>
        </mxCell>
        <mxCell id="Nc63QevifEA5sTJZHli5-84" value="" style="endArrow=none;html=1;rounded=0;exitX=0.75;exitY=1;exitDx=0;exitDy=0;entryX=0.5;entryY=0;entryDx=0;entryDy=0;" parent="1" source="Nc63QevifEA5sTJZHli5-51" target="Nc63QevifEA5sTJZHli5-81" edge="1">
          <mxGeometry relative="1" as="geometry">
            <mxPoint x="337" y="862.5" as="sourcePoint" />
            <mxPoint x="497" y="862.5" as="targetPoint" />
            <Array as="points">
              <mxPoint x="357" y="962.5" />
            </Array>
          </mxGeometry>
        </mxCell>
        <mxCell id="Nc63QevifEA5sTJZHli5-85" value="" style="endArrow=none;html=1;rounded=0;exitX=0.5;exitY=0;exitDx=0;exitDy=0;entryX=0.25;entryY=1;entryDx=0;entryDy=0;" parent="1" source="Nc63QevifEA5sTJZHli5-79" target="Nc63QevifEA5sTJZHli5-51" edge="1">
          <mxGeometry relative="1" as="geometry">
            <mxPoint x="337" y="862.5" as="sourcePoint" />
            <mxPoint x="497" y="862.5" as="targetPoint" />
          </mxGeometry>
        </mxCell>
        <mxCell id="Nc63QevifEA5sTJZHli5-86" value="" style="endArrow=none;html=1;rounded=0;exitX=1;exitY=0.5;exitDx=0;exitDy=0;entryX=0;entryY=0.5;entryDx=0;entryDy=0;" parent="1" source="Nc63QevifEA5sTJZHli5-80" target="Nc63QevifEA5sTJZHli5-51" edge="1">
          <mxGeometry relative="1" as="geometry">
            <mxPoint x="337" y="862.5" as="sourcePoint" />
            <mxPoint x="497" y="862.5" as="targetPoint" />
          </mxGeometry>
        </mxCell>
        <mxCell id="Nc63QevifEA5sTJZHli5-87" value="Colonia" style="ellipse;whiteSpace=wrap;html=1;align=center;" parent="1" vertex="1">
          <mxGeometry x="567" y="960" width="100" height="40" as="geometry" />
        </mxCell>
        <mxCell id="Nc63QevifEA5sTJZHli5-88" value="Num_Int" style="ellipse;whiteSpace=wrap;html=1;align=center;" parent="1" vertex="1">
          <mxGeometry x="567" y="910" width="100" height="40" as="geometry" />
        </mxCell>
        <mxCell id="Nc63QevifEA5sTJZHli5-89" value="Num_Ext" style="ellipse;whiteSpace=wrap;html=1;align=center;" parent="1" vertex="1">
          <mxGeometry x="567" y="860" width="100" height="40" as="geometry" />
        </mxCell>
        <mxCell id="Nc63QevifEA5sTJZHli5-90" value="Calle" style="ellipse;whiteSpace=wrap;html=1;align=center;" parent="1" vertex="1">
          <mxGeometry x="567" y="810" width="100" height="40" as="geometry" />
        </mxCell>
        <mxCell id="Nc63QevifEA5sTJZHli5-91" value="Municipio" style="ellipse;whiteSpace=wrap;html=1;align=center;" parent="1" vertex="1">
          <mxGeometry x="567" y="1015" width="100" height="40" as="geometry" />
        </mxCell>
        <mxCell id="Nc63QevifEA5sTJZHli5-92" value="" style="endArrow=none;html=1;rounded=0;exitX=1;exitY=0.5;exitDx=0;exitDy=0;entryX=0;entryY=0.5;entryDx=0;entryDy=0;" parent="1" source="Nc63QevifEA5sTJZHli5-82" target="Nc63QevifEA5sTJZHli5-91" edge="1">
          <mxGeometry relative="1" as="geometry">
            <mxPoint x="337" y="862.5" as="sourcePoint" />
            <mxPoint x="497" y="862.5" as="targetPoint" />
          </mxGeometry>
        </mxCell>
        <mxCell id="Nc63QevifEA5sTJZHli5-93" value="" style="endArrow=none;html=1;rounded=0;exitX=1;exitY=0.5;exitDx=0;exitDy=0;entryX=0;entryY=0.5;entryDx=0;entryDy=0;" parent="1" source="Nc63QevifEA5sTJZHli5-82" target="Nc63QevifEA5sTJZHli5-87" edge="1">
          <mxGeometry relative="1" as="geometry">
            <mxPoint x="337" y="862.5" as="sourcePoint" />
            <mxPoint x="497" y="862.5" as="targetPoint" />
          </mxGeometry>
        </mxCell>
        <mxCell id="Nc63QevifEA5sTJZHli5-94" value="" style="endArrow=none;html=1;rounded=0;exitX=1;exitY=0.5;exitDx=0;exitDy=0;entryX=0;entryY=0.5;entryDx=0;entryDy=0;" parent="1" source="Nc63QevifEA5sTJZHli5-82" target="Nc63QevifEA5sTJZHli5-88" edge="1">
          <mxGeometry relative="1" as="geometry">
            <mxPoint x="337" y="862.5" as="sourcePoint" />
            <mxPoint x="497" y="862.5" as="targetPoint" />
          </mxGeometry>
        </mxCell>
        <mxCell id="Nc63QevifEA5sTJZHli5-95" value="" style="endArrow=none;html=1;rounded=0;exitX=1;exitY=0.5;exitDx=0;exitDy=0;entryX=0;entryY=0.5;entryDx=0;entryDy=0;" parent="1" source="Nc63QevifEA5sTJZHli5-82" target="Nc63QevifEA5sTJZHli5-89" edge="1">
          <mxGeometry relative="1" as="geometry">
            <mxPoint x="337" y="862.5" as="sourcePoint" />
            <mxPoint x="497" y="862.5" as="targetPoint" />
          </mxGeometry>
        </mxCell>
        <mxCell id="Nc63QevifEA5sTJZHli5-96" value="" style="endArrow=none;html=1;rounded=0;exitX=1;exitY=0.5;exitDx=0;exitDy=0;entryX=0;entryY=0.5;entryDx=0;entryDy=0;" parent="1" source="Nc63QevifEA5sTJZHli5-82" target="Nc63QevifEA5sTJZHli5-90" edge="1">
          <mxGeometry relative="1" as="geometry">
            <mxPoint x="337" y="862.5" as="sourcePoint" />
            <mxPoint x="497" y="862.5" as="targetPoint" />
          </mxGeometry>
        </mxCell>
        <mxCell id="Nc63QevifEA5sTJZHli5-97" value="ID_Producto" style="ellipse;whiteSpace=wrap;html=1;align=center;fontStyle=4;" parent="1" vertex="1">
          <mxGeometry x="717" y="625" width="100" height="40" as="geometry" />
        </mxCell>
        <mxCell id="Nc63QevifEA5sTJZHli5-98" value="Nombre" style="ellipse;whiteSpace=wrap;html=1;align=center;" parent="1" vertex="1">
          <mxGeometry x="717" y="675" width="100" height="40" as="geometry" />
        </mxCell>
        <mxCell id="Nc63QevifEA5sTJZHli5-99" value="Cantidad" style="ellipse;whiteSpace=wrap;html=1;align=center;" parent="1" vertex="1">
          <mxGeometry x="717" y="725" width="100" height="40" as="geometry" />
        </mxCell>
        <mxCell id="Nc63QevifEA5sTJZHli5-100" value="Precio_Unit" style="ellipse;whiteSpace=wrap;html=1;align=center;" parent="1" vertex="1">
          <mxGeometry x="717" y="775" width="100" height="40" as="geometry" />
        </mxCell>
        <mxCell id="Nc63QevifEA5sTJZHli5-101" value="" style="endArrow=none;html=1;rounded=0;entryX=0;entryY=0.5;entryDx=0;entryDy=0;exitX=1;exitY=1;exitDx=0;exitDy=0;" parent="1" source="Nc63QevifEA5sTJZHli5-52" target="Nc63QevifEA5sTJZHli5-100" edge="1">
          <mxGeometry relative="1" as="geometry">
            <mxPoint x="207" y="762.5" as="sourcePoint" />
            <mxPoint x="367" y="762.5" as="targetPoint" />
          </mxGeometry>
        </mxCell>
        <mxCell id="Nc63QevifEA5sTJZHli5-102" value="" style="endArrow=none;html=1;rounded=0;entryX=0;entryY=0.5;entryDx=0;entryDy=0;exitX=1;exitY=0.75;exitDx=0;exitDy=0;" parent="1" source="Nc63QevifEA5sTJZHli5-52" target="Nc63QevifEA5sTJZHli5-99" edge="1">
          <mxGeometry relative="1" as="geometry">
            <mxPoint x="207" y="762.5" as="sourcePoint" />
            <mxPoint x="367" y="762.5" as="targetPoint" />
          </mxGeometry>
        </mxCell>
        <mxCell id="Nc63QevifEA5sTJZHli5-103" value="" style="endArrow=none;html=1;rounded=0;entryX=0;entryY=0.5;entryDx=0;entryDy=0;exitX=1;exitY=0.25;exitDx=0;exitDy=0;" parent="1" source="Nc63QevifEA5sTJZHli5-52" target="Nc63QevifEA5sTJZHli5-98" edge="1">
          <mxGeometry relative="1" as="geometry">
            <mxPoint x="207" y="762.5" as="sourcePoint" />
            <mxPoint x="367" y="762.5" as="targetPoint" />
          </mxGeometry>
        </mxCell>
        <mxCell id="Nc63QevifEA5sTJZHli5-104" value="" style="endArrow=none;html=1;rounded=0;entryX=1;entryY=0;entryDx=0;entryDy=0;exitX=0;exitY=0.5;exitDx=0;exitDy=0;" parent="1" source="Nc63QevifEA5sTJZHli5-97" target="Nc63QevifEA5sTJZHli5-52" edge="1">
          <mxGeometry relative="1" as="geometry">
            <mxPoint x="207" y="762.5" as="sourcePoint" />
            <mxPoint x="367" y="762.5" as="targetPoint" />
          </mxGeometry>
        </mxCell>
      </root>
    </mxGraphModel>
  </diagram>
</mxfile>
